<svg width="30" height="30" viewBox="0 0 30 30" fill="none" xmlns="http://www.w3.org/2000/svg">
<path d="M15.4036 15.1052L7.10359 8.88024C6.96795 8.77852 6.85787 8.64661 6.78204 8.49496C6.70622 8.34332 6.66675 8.1761 6.66675 8.00656V3.0921C6.66675 2.80246 6.78181 2.52468 6.98662 2.31987C7.19143 2.11506 7.46921 2 7.75885 2H23.0483C23.3379 2 23.6157 2.11506 23.8205 2.31987C24.0253 2.52468 24.1404 2.80246 24.1404 3.0921V7.95742C24.1399 8.12581 24.1004 8.2918 24.0251 8.44241C23.9498 8.59302 23.8407 8.72418 23.7063 8.82564L15.4036 15.1052Z" stroke="#353535" stroke-width="1.56492" stroke-linecap="round" stroke-linejoin="round"/>
<path d="M15.4036 15.1052L7.10359 21.3302C6.96795 21.4319 6.85787 21.5638 6.78204 21.7155C6.70622 21.8671 6.66675 22.0343 6.66675 22.2039V27.1183C6.66675 27.408 6.78181 27.6858 6.98662 27.8906C7.19143 28.0954 7.46921 28.2104 7.75885 28.2104H23.0483C23.3379 28.2104 23.6157 28.0954 23.8205 27.8906C24.0253 27.6858 24.1404 27.408 24.1404 27.1183V22.253C24.1403 22.0842 24.101 21.9177 24.0257 21.7665C23.9504 21.6154 23.841 21.4838 23.7063 21.3821L15.4036 15.1052Z" stroke="#353535" stroke-width="1.56492" stroke-linecap="round" stroke-linejoin="round"/>
</svg>
