<svg width="131" height="33" viewBox="0 0 131 33" fill="none" xmlns="http://www.w3.org/2000/svg">
<path d="M51.235 25.3351C50.0809 25.3351 49.0385 25.1377 48.1077 24.7431C47.1845 24.341 46.4213 23.7714 45.8182 23.0343C45.2225 22.2897 44.8353 21.4074 44.6566 20.3873L47.0914 20.0188C47.3371 21.0016 47.8509 21.7685 48.6327 22.3195C49.4145 22.8631 50.3266 23.1348 51.369 23.1348C52.0168 23.1348 52.6124 23.0343 53.156 22.8333C53.6995 22.6248 54.1351 22.3307 54.4627 21.951C54.7978 21.5638 54.9653 21.1021 54.9653 20.566C54.9653 20.2757 54.9132 20.0188 54.8089 19.7954C54.7122 19.572 54.5744 19.3784 54.3957 19.2146C54.2245 19.0434 54.0122 18.8982 53.7591 18.779C53.5134 18.6525 53.2416 18.5445 52.9438 18.4552L48.8225 17.2378C48.4205 17.1186 48.0109 16.966 47.594 16.7799C47.177 16.5863 46.7936 16.3368 46.4436 16.0316C46.1011 15.7188 45.8219 15.3354 45.606 14.8812C45.39 14.4195 45.2821 13.8611 45.2821 13.2059C45.2821 12.2156 45.5352 11.3779 46.0415 10.6929C46.5553 10.0005 47.2478 9.47926 48.1189 9.12931C48.9901 8.77191 49.9655 8.59322 51.0451 8.59322C52.1322 8.60811 53.1039 8.8017 53.9601 9.17399C54.8238 9.54628 55.5386 10.0824 56.1045 10.7823C56.6778 11.4747 57.0725 12.3161 57.2884 13.3064L54.7866 13.7308C54.6749 13.1277 54.4367 12.6102 54.0718 12.1784C53.707 11.7391 53.2602 11.404 52.7316 11.1732C52.2029 10.9349 51.6296 10.8121 51.0116 10.8046C50.4159 10.7897 49.8687 10.8791 49.3698 11.0727C48.8784 11.2663 48.4838 11.538 48.1859 11.888C47.8955 12.2379 47.7503 12.64 47.7503 13.0942C47.7503 13.5409 47.8806 13.9021 48.1412 14.1776C48.4019 14.453 48.722 14.6727 49.1018 14.8365C49.4889 14.9929 49.8724 15.1232 50.2521 15.2274L53.223 16.0651C53.5953 16.1693 54.016 16.3108 54.4851 16.4895C54.9616 16.6607 55.4195 16.9027 55.8588 17.2154C56.3055 17.5282 56.6741 17.9451 56.9645 18.4663C57.2549 18.9801 57.4001 19.6279 57.4001 20.4097C57.4001 21.2213 57.2363 21.9361 56.9087 22.5541C56.581 23.1646 56.1306 23.6784 55.5572 24.0953C54.9914 24.5049 54.3361 24.8139 53.5916 25.0223C52.847 25.2308 52.0615 25.3351 51.235 25.3351ZM65.13 25.3351C63.9313 25.3351 62.8777 25.0745 61.9693 24.5533C61.0683 24.0246 60.3647 23.2912 59.8584 22.353C59.3595 21.4074 59.1101 20.3129 59.1101 19.0694C59.1101 17.7515 59.3558 16.6086 59.8472 15.6407C60.3461 14.6727 61.0386 13.9244 61.9246 13.3957C62.8107 12.8671 63.8419 12.6028 65.0183 12.6028C66.2469 12.6028 67.293 12.8894 68.1567 13.4628C69.0204 14.0286 69.6645 14.8365 70.0889 15.8864C70.5208 16.9362 70.692 18.1834 70.6027 19.6279H68.2684V18.779C68.2535 17.3792 67.9855 16.3443 67.4643 15.6742C66.9505 15.004 66.165 14.669 65.1077 14.669C63.9387 14.669 63.0601 15.0375 62.4719 15.7747C61.8837 16.5118 61.5896 17.5766 61.5896 18.9689C61.5896 20.2943 61.8837 21.3218 62.4719 22.0515C63.0601 22.7737 63.9089 23.1348 65.0183 23.1348C65.748 23.1348 66.3772 22.971 66.9058 22.6434C67.4419 22.3083 67.8589 21.8318 68.1567 21.2138L70.4463 21.9398C69.9772 23.0194 69.2662 23.8571 68.3131 24.4527C67.36 25.041 66.299 25.3351 65.13 25.3351ZM60.8301 19.6279V17.8074H69.4411V19.6279H60.8301ZM73.1085 25V12.9378H75.1858V15.864L74.8955 15.4843C75.0444 15.0971 75.238 14.7434 75.4762 14.4233C75.7145 14.0957 75.99 13.8276 76.3027 13.6191C76.608 13.3957 76.9468 13.2245 77.3191 13.1054C77.6988 12.9788 78.086 12.9043 78.4806 12.882C78.8752 12.8522 79.255 12.8708 79.6198 12.9378V15.1269C79.2252 15.0227 78.7859 14.9929 78.3019 15.0375C77.8254 15.0822 77.3861 15.2349 76.984 15.4955C76.6043 15.7412 76.3027 16.039 76.0793 16.389C75.8634 16.7389 75.707 17.1298 75.6103 17.5617C75.5135 17.9861 75.4651 18.4365 75.4651 18.9131V25H73.1085ZM86.8784 25.3351C85.6796 25.3351 84.626 25.0745 83.7177 24.5533C82.8167 24.0246 82.1131 23.2912 81.6068 22.353C81.1079 21.4074 80.8585 20.3129 80.8585 19.0694C80.8585 17.7515 81.1042 16.6086 81.5956 15.6407C82.0945 14.6727 82.7869 13.9244 83.673 13.3957C84.559 12.8671 85.5903 12.6028 86.7667 12.6028C87.9953 12.6028 89.0414 12.8894 89.9051 13.4628C90.7688 14.0286 91.4129 14.8365 91.8373 15.8864C92.2691 16.9362 92.4404 18.1834 92.351 19.6279H90.0168V18.779C90.0019 17.3792 89.7339 16.3443 89.2127 15.6742C88.6989 15.004 87.9134 14.669 86.8561 14.669C85.6871 14.669 84.8085 15.0375 84.2203 15.7747C83.632 16.5118 83.3379 17.5766 83.3379 18.9689C83.3379 20.2943 83.632 21.3218 84.2203 22.0515C84.8085 22.7737 85.6573 23.1348 86.7667 23.1348C87.4964 23.1348 88.1256 22.971 88.6542 22.6434C89.1903 22.3083 89.6073 21.8318 89.9051 21.2138L92.1947 21.9398C91.7256 23.0194 91.0145 23.8571 90.0615 24.4527C89.1084 25.041 88.0474 25.3351 86.8784 25.3351ZM82.5785 19.6279V17.8074H91.1895V19.6279H82.5785ZM102.995 25V19.0694C102.995 18.6003 102.955 18.1201 102.873 17.6287C102.798 17.1298 102.649 16.6682 102.426 16.2438C102.21 15.8193 101.901 15.4768 101.499 15.2162C101.104 14.9556 100.587 14.8253 99.9464 14.8253C99.5295 14.8253 99.1349 14.8961 98.7626 15.0375C98.3903 15.1716 98.0627 15.3912 97.7797 15.6965C97.5042 16.0018 97.2846 16.4038 97.1208 16.9027C96.9644 17.4016 96.8862 18.0084 96.8862 18.7232L95.4343 18.1759C95.4343 17.0814 95.6391 16.1172 96.0486 15.2833C96.4581 14.4419 97.0463 13.7867 97.8132 13.3176C98.5801 12.8485 99.5071 12.6139 100.594 12.6139C101.428 12.6139 102.128 12.748 102.694 13.016C103.26 13.2841 103.718 13.6377 104.068 14.077C104.425 14.5089 104.697 14.9817 104.883 15.4955C105.069 16.0092 105.196 16.5118 105.263 17.0032C105.33 17.4947 105.363 17.9265 105.363 18.2988V25H102.995ZM94.5185 25V12.9378H96.607V16.4225H96.8862V25H94.5185ZM109.467 30.361L111.801 24.006L111.834 25.8823L106.574 12.9378H109.009L112.94 22.9338H112.225L115.978 12.9378H118.346L111.689 30.361H109.467ZM123.066 25.3351C122.172 25.3351 121.424 25.1713 120.821 24.8436C120.218 24.5086 119.76 24.0693 119.447 23.5257C119.142 22.9747 118.989 22.3716 118.989 21.7164C118.989 21.1059 119.097 20.5698 119.313 20.1081C119.529 19.6465 119.849 19.2556 120.273 18.9354C120.698 18.6078 121.219 18.3435 121.837 18.1424C122.373 17.9861 122.98 17.8483 123.658 17.7292C124.335 17.6101 125.046 17.4984 125.791 17.3941C126.543 17.2899 127.287 17.1857 128.024 17.0814L127.176 17.5505C127.191 16.6049 126.99 15.905 126.573 15.4508C126.163 14.9891 125.456 14.7583 124.451 14.7583C123.818 14.7583 123.237 14.9072 122.708 15.2051C122.18 15.4955 121.811 15.9794 121.603 16.657L119.425 15.9869C119.722 14.9519 120.288 14.1292 121.122 13.5186C121.964 12.908 123.08 12.6028 124.473 12.6028C125.552 12.6028 126.491 12.7889 127.287 13.1612C128.092 13.526 128.68 14.1068 129.052 14.9035C129.246 15.2981 129.365 15.7151 129.409 16.1544C129.454 16.5937 129.476 17.0665 129.476 17.5728V25H127.41V22.2413L127.812 22.5987C127.313 23.522 126.677 24.2107 125.902 24.6649C125.136 25.1117 124.19 25.3351 123.066 25.3351ZM123.479 23.4252C124.142 23.4252 124.711 23.3098 125.188 23.079C125.664 22.8407 126.048 22.5392 126.338 22.1743C126.628 21.8095 126.818 21.4297 126.908 21.0351C127.034 20.6777 127.105 20.2757 127.12 19.8289C127.142 19.3822 127.153 19.0248 127.153 18.7567L127.913 19.0359C127.176 19.1476 126.506 19.2481 125.902 19.3375C125.299 19.4268 124.752 19.5162 124.261 19.6055C123.777 19.6874 123.345 19.788 122.965 19.9071C122.645 20.0188 122.358 20.1528 122.105 20.3092C121.859 20.4655 121.662 20.6554 121.513 20.8788C121.372 21.1021 121.301 21.3739 121.301 21.6941C121.301 22.0068 121.379 22.2972 121.535 22.5652C121.692 22.8258 121.93 23.0343 122.25 23.1907C122.57 23.347 122.98 23.4252 123.479 23.4252Z" fill="#1A2D27"/>
<path d="M13.6857 1.5255C19.1227 -1.61357 26.0758 0.248743 29.215 5.68565L29.4943 6.2003C30.2793 7.73465 30.6803 9.37284 30.7316 11.0011C33.0878 11.8993 35.1626 13.5818 36.5216 15.9357L36.8009 16.4503C39.5401 21.8041 37.6266 28.424 32.3595 31.465L31.8459 31.7442C27.4943 33.9707 22.3066 33.1238 18.8839 29.9005C18.3286 30.3886 17.7177 30.8311 17.0529 31.215L16.5392 31.4942C11.1855 34.2334 4.56659 32.3206 1.52554 27.0538L1.24527 26.5401C-1.40609 21.359 0.300221 14.9918 5.18667 11.8302L5.6857 11.5255C6.44401 11.0877 7.23248 10.7491 8.03531 10.5021C8.30088 7.07204 10.1149 3.81771 13.1867 1.83018L13.6857 1.5255ZM30.6007 13.1153C30.0886 16.396 28.1523 19.4255 25.0529 21.215L24.5392 21.4942C23.9408 21.8004 23.3255 22.0447 22.7023 22.2364C22.5281 24.4863 21.6877 26.6585 20.2628 28.4493C23.1954 31.2053 27.6946 31.8482 31.3595 29.7325C35.84 27.1458 37.3758 21.4161 34.7892 16.9357C33.7828 15.1927 32.2998 13.8976 30.6007 13.1153ZM8.06753 12.6026C7.59742 12.7803 7.13511 12.9975 6.6857 13.2569C2.20542 15.8439 0.671188 21.5734 3.25796 26.0538C5.84482 30.5337 11.5726 32.0687 16.0529 29.4825C16.5989 29.1673 17.1004 28.804 17.5568 28.4034C17.298 28.0547 17.0546 27.689 16.8322 27.3038L16.5519 26.7901C15.7663 25.255 15.3658 23.6155 15.3146 21.9864C12.9589 21.0882 10.8845 19.4073 9.52554 17.0538L9.24527 16.5401C8.5989 15.277 8.21305 13.9431 8.06753 12.6026ZM17.3556 22.5548C17.4836 23.8376 17.8772 25.1149 18.5636 26.3038C18.6804 26.5061 18.8065 26.7006 18.9357 26.8907C19.8493 25.6373 20.4316 24.1824 20.6447 22.6651C19.5413 22.7891 18.4337 22.7495 17.3556 22.5548ZM19.1095 16.0958C18.1557 17.4039 17.561 18.9326 17.3722 20.5216C18.4595 20.7592 19.5901 20.8023 20.7101 20.6407C20.6056 19.2889 20.2057 17.9382 19.4826 16.6857C19.3653 16.4825 19.2394 16.2868 19.1095 16.0958ZM28.673 12.4669C26.4737 11.9864 24.0954 12.2929 21.9923 13.5069C21.4466 13.8221 20.9447 14.1846 20.4884 14.5851C20.7476 14.9343 20.9923 15.3 21.215 15.6857L21.4943 16.2003C22.1403 17.4629 22.5246 18.796 22.6701 20.1358C23.1404 19.9581 23.6033 19.7421 24.0529 19.4825C26.7142 17.946 28.3364 15.3006 28.673 12.4669ZM17.7804 14.5382C15.6988 12.5835 12.8295 11.6935 10.0285 12.0978C10.1329 13.4501 10.5345 14.8008 11.258 16.0538C12.2643 17.7965 13.7468 19.091 15.4455 19.8732C15.7473 17.9399 16.5424 16.0943 17.7804 14.5382ZM27.4826 6.68565C24.8956 2.2055 19.1661 0.670292 14.6857 3.25694C12.0874 4.75723 10.4814 7.31484 10.0939 10.0724C13.3847 9.70253 16.7195 10.7923 19.1593 13.089C19.573 12.7252 20.0175 12.3874 20.4923 12.0802L20.9923 11.7755C23.4145 10.3771 26.137 9.97291 28.6896 10.4337C28.5616 9.1514 28.1687 7.8742 27.4826 6.68565Z" fill="#1A2D27"/>
</svg>
