<svg width="30" height="31" viewBox="0 0 30 31" fill="none" xmlns="http://www.w3.org/2000/svg">
<path d="M11.25 20.7496H3.75C3.50136 20.7496 3.2629 20.6509 3.08709 20.475C2.91127 20.2992 2.8125 20.0608 2.8125 19.8121V12.3121C2.8125 10.0744 3.70145 7.92826 5.28379 6.34592C6.86612 4.76358 9.01224 3.87463 11.25 3.87463C13.4878 3.87463 15.6339 4.76358 17.2162 6.34592C18.7986 7.92826 19.6875 10.0744 19.6875 12.3121C19.6875 14.5499 18.7986 16.696 17.2162 18.2783C15.6339 19.8607 13.4878 20.7496 11.25 20.7496Z" stroke="#353535" stroke-width="1.56492" stroke-linecap="round" stroke-linejoin="round"/>
<path d="M10.793 20.7497C11.3747 22.3951 12.4523 23.8196 13.8774 24.827C15.3024 25.8344 17.0048 26.3751 18.75 26.3747H26.25C26.4986 26.3747 26.7371 26.2759 26.9129 26.1001C27.0887 25.9243 27.1875 25.6858 27.1875 25.4372V17.9372C27.1874 15.7794 26.3607 13.7036 24.8772 12.1367C23.3937 10.5697 21.3663 9.63065 19.2117 9.51257" stroke="#353535" stroke-width="1.56492" stroke-linecap="round" stroke-linejoin="round"/>
</svg>
