<svg width="54" height="50" viewBox="0 0 54 50" fill="none" xmlns="http://www.w3.org/2000/svg">
<path opacity="0.1" d="M13.2318 0L18.0596 3.57144C16.7483 5.2381 15.3775 7.61905 13.947 10.7143C12.5166 13.8095 11.3841 17.2024 10.5497 20.8929C9.71523 24.5833 9.47682 28.2738 9.83444 31.9643C10.6689 31.6071 11.4437 31.369 12.1589 31.25C12.8742 31.0119 13.5894 30.8929 14.3046 30.8929C16.6887 30.8929 18.6556 31.7262 20.2053 33.3929C21.755 35.0595 22.5298 37.1429 22.5298 39.6429C22.5298 42.9762 21.5762 45.5357 19.6689 47.3214C17.7616 49.1071 15.4371 50 12.6954 50C8.64238 50 5.48344 48.4524 3.21854 45.3571C1.07285 42.1429 0 38.2738 0 33.75C0 30.6548 0.536424 27.0238 1.60927 22.8571C2.80132 18.5714 4.35099 14.3452 6.25828 10.1786C8.28477 6.01191 10.6093 2.61905 13.2318 0ZM44.702 0L49.5298 3.57144C48.2185 5.2381 46.8477 7.61905 45.4172 10.7143C43.9868 13.8095 42.8543 17.2024 42.0199 20.8929C41.1854 24.5833 40.947 28.2738 41.3046 31.9643C42.1391 31.6071 42.9139 31.369 43.6291 31.25C44.3444 31.0119 45.0596 30.8929 45.7748 30.8929C48.1589 30.8929 50.1258 31.7262 51.6755 33.3929C53.2252 35.0595 54 37.1429 54 39.6429C54 42.9762 53.0464 45.5357 51.1391 47.3214C49.2318 49.1071 46.9073 50 44.1656 50C40.1126 50 36.9536 48.4524 34.6887 45.3571C32.543 42.1429 31.4702 38.2738 31.4702 33.75C31.4702 30.6548 32.0066 27.0238 33.0795 22.8571C34.2715 18.5714 35.8212 14.3452 37.7285 10.1786C39.755 6.01191 42.0795 2.61905 44.702 0Z" fill="#1A312A"/>
</svg>
